# Blender v2.66 (sub 1) OBJ File: 'cargocontainer.blend'
# www.blender.org
mtllib cargocontainer.mtl
o Cargocontainer
v -7.500000 -3.225000 3.225000
v -7.500000 -3.225000 -3.225000
v -7.500000 -3.750000 -3.750000
v -7.500000 3.225000 3.225000
v -7.500000 3.750000 3.750000
v -7.500000 3.750000 -3.750000
v -7.500000 -3.750000 3.750000
v -7.500000 3.225000 -3.225000
v -6.825000 -3.225000 3.750000
v 7.500000 -3.750000 3.750000
v 6.825000 -3.225000 3.750000
v 0.375000 -3.225000 3.750000
v -0.375000 -3.225000 3.750000
v -6.825000 3.225000 3.750000
v 7.500000 3.750000 3.750000
v -0.375000 3.225000 3.750000
v 0.375000 3.225000 3.750000
v 6.825000 3.225000 3.750000
v 6.825000 -3.750000 3.225000
v 0.375000 -3.750000 3.225000
v -0.375000 -3.750000 -3.225000
v 7.500000 -3.750000 -3.750000
v -6.825000 -3.750000 -3.225000
v -6.825000 -3.750000 3.225000
v -0.375000 -3.750000 3.225000
v 0.375000 -3.750000 -3.225000
v 6.825000 -3.750000 -3.225000
v 6.825000 -3.225000 -3.750000
v 0.375000 -3.225000 -3.750000
v -0.375000 3.225000 -3.750000
v 7.500000 3.750000 -3.750000
v -6.825000 3.225000 -3.750000
v -6.825000 -3.225000 -3.750000
v -0.375000 -3.225000 -3.750000
v 0.375000 3.225000 -3.750000
v 6.825000 3.225000 -3.750000
v -6.825000 3.750000 3.225000
v 6.825000 3.750000 3.225000
v 0.375000 3.750000 3.225000
v -0.375000 3.750000 3.225000
v -6.825000 3.750000 -3.225000
v -0.375000 3.750000 -3.225000
v 0.375000 3.750000 -3.225000
v 6.825000 3.750000 -3.225000
v -7.125000 3.225000 3.225000
v -7.125000 -3.225000 3.225000
v -7.125000 3.225000 -3.225000
v -7.125000 -3.225000 -3.225000
v 7.500000 -3.225000 3.225000
v 7.500000 3.225000 3.225000
v 7.500000 -3.225000 -3.225000
v 7.500000 3.225000 -3.225000
v -6.825000 -3.225000 3.375000
v -6.825000 3.225000 3.375000
v -0.375000 -3.225000 3.375000
v -0.375000 3.225000 3.375000
v 0.375000 -3.225000 3.375000
v 0.375000 3.225000 3.375000
v 6.825000 -3.225000 3.375000
v 6.825000 3.225000 3.375000
v -6.825000 -3.375000 -3.225000
v -6.825000 -3.375000 3.225000
v -0.375000 -3.375000 -3.225000
v -0.375000 -3.375000 3.225000
v 0.375000 -3.375000 -3.225000
v 0.375000 -3.375000 3.225000
v 6.825000 -3.375000 -3.225000
v 6.825000 -3.375000 3.225000
v -6.825000 3.225000 -3.375000
v -6.825000 -3.225000 -3.375000
v -0.375000 3.225000 -3.375000
v -0.375000 -3.225000 -3.375000
v 0.375000 3.225000 -3.375000
v 0.375000 -3.225000 -3.375000
v 6.825000 3.225000 -3.375000
v 6.825000 -3.225000 -3.375000
v -6.825000 3.375000 -3.225000
v -6.825000 3.375000 3.225000
v -0.375000 3.375000 3.225000
v -0.375000 3.375000 -3.225000
v 0.375000 3.375000 -3.225000
v 0.375000 3.375000 3.225000
v 6.825000 3.375000 3.225000
v 6.825000 3.375000 -3.225000
v 7.125000 -3.225000 -3.225000
v 7.125000 -3.225000 3.225000
v 7.125000 3.225000 3.225000
v 7.125000 3.225000 -3.225000
v -0.375000 3.750000 3.225000
v -0.375000 3.750000 3.225000
v -0.375000 3.750000 -3.225000
v -0.375000 3.750000 -3.225000
v 0.375000 3.225000 -3.375000
v 0.375000 3.225000 -3.375000
v 6.825000 3.225000 -3.375000
v 6.825000 3.225000 -3.375000
v -7.500000 3.225000 3.225000
v -7.500000 3.225000 3.225000
v -7.125000 3.225000 3.225000
v -7.125000 3.225000 3.225000
v 6.825000 3.750000 3.225000
v 6.825000 3.750000 3.225000
v 6.825000 3.375000 3.225000
v 6.825000 3.375000 3.225000
v -0.375000 -3.225000 3.750000
v -0.375000 -3.225000 3.750000
v -0.375000 3.225000 3.750000
v -0.375000 3.225000 3.750000
v -6.825000 -3.750000 -3.225000
v -6.825000 -3.750000 -3.225000
v -6.825000 -3.375000 -3.225000
v -6.825000 -3.375000 -3.225000
v 6.825000 -3.375000 -3.225000
v 6.825000 -3.375000 -3.225000
v 6.825000 -3.375000 3.225000
v 6.825000 -3.375000 3.225000
v -7.500000 3.750000 3.750000
v -7.500000 3.750000 3.750000
v -7.500000 3.750000 -3.750000
v -7.500000 3.750000 -3.750000
v -6.825000 -3.750000 3.225000
v -6.825000 -3.750000 3.225000
v 0.375000 3.225000 -3.750000
v 0.375000 3.225000 -3.750000
v 6.825000 3.225000 -3.750000
v 6.825000 3.225000 -3.750000
v 7.500000 -3.750000 -3.750000
v 7.500000 -3.750000 -3.750000
v 7.500000 3.750000 -3.750000
v 7.500000 3.750000 -3.750000
v -6.825000 -3.225000 -3.375000
v -6.825000 -3.225000 -3.375000
v -0.375000 -3.225000 -3.375000
v -0.375000 -3.225000 -3.375000
v 6.825000 -3.750000 3.225000
v 6.825000 -3.750000 3.225000
v 6.825000 -3.750000 -3.225000
v 6.825000 -3.750000 -3.225000
v 6.825000 3.225000 3.750000
v 6.825000 3.225000 3.750000
v 6.825000 3.225000 3.375000
v 6.825000 3.225000 3.375000
v -6.825000 -3.375000 3.225000
v -6.825000 -3.375000 3.225000
v -0.375000 -3.375000 3.225000
v -0.375000 -3.375000 3.225000
v 6.825000 3.750000 -3.225000
v 6.825000 3.750000 -3.225000
v -7.125000 3.225000 -3.225000
v -7.125000 3.225000 -3.225000
v 6.825000 -3.225000 3.375000
v 6.825000 -3.225000 3.375000
v 0.375000 3.375000 3.225000
v 0.375000 3.375000 3.225000
v 0.375000 3.375000 -3.225000
v 0.375000 3.375000 -3.225000
v 6.825000 3.375000 -3.225000
v 6.825000 3.375000 -3.225000
v -6.825000 3.225000 -3.375000
v -6.825000 3.225000 -3.375000
v -0.375000 3.225000 -3.375000
v -0.375000 3.225000 -3.375000
v -6.825000 3.750000 3.225000
v -6.825000 3.750000 3.225000
v -6.825000 3.750000 -3.225000
v -6.825000 3.750000 -3.225000
v 0.375000 -3.225000 3.375000
v 0.375000 -3.225000 3.375000
v 0.375000 3.225000 3.375000
v 0.375000 3.225000 3.375000
v 0.375000 -3.750000 3.225000
v 0.375000 -3.750000 3.225000
v 0.375000 -3.375000 3.225000
v 0.375000 -3.375000 3.225000
v -0.375000 -3.750000 -3.225000
v -0.375000 -3.750000 -3.225000
v -7.500000 -3.225000 3.225000
v -7.500000 -3.225000 3.225000
v -7.500000 -3.225000 -3.225000
v -7.500000 -3.225000 -3.225000
v 6.825000 -3.225000 -3.750000
v 6.825000 -3.225000 -3.750000
v 7.125000 -3.225000 -3.225000
v 7.125000 -3.225000 -3.225000
v 7.125000 3.225000 -3.225000
v 7.125000 3.225000 -3.225000
v 0.375000 -3.225000 -3.375000
v 0.375000 -3.225000 -3.375000
v -7.125000 -3.225000 -3.225000
v -7.125000 -3.225000 -3.225000
v -7.500000 -3.750000 3.750000
v -7.500000 -3.750000 3.750000
v -6.825000 -3.225000 3.750000
v -6.825000 -3.225000 3.750000
v -6.825000 3.225000 3.750000
v -6.825000 3.225000 3.750000
v 7.500000 3.750000 3.750000
v 7.500000 3.750000 3.750000
v -7.500000 3.225000 -3.225000
v -7.500000 3.225000 -3.225000
v 7.500000 -3.225000 -3.225000
v 7.500000 -3.225000 -3.225000
v 7.500000 3.225000 -3.225000
v 7.500000 3.225000 -3.225000
v -6.825000 3.225000 -3.750000
v -6.825000 3.225000 -3.750000
v -6.825000 -3.225000 -3.750000
v -6.825000 -3.225000 -3.750000
v 7.500000 -3.225000 3.225000
v 7.500000 -3.225000 3.225000
v 7.500000 3.225000 3.225000
v 7.500000 3.225000 3.225000
v -7.125000 -3.225000 3.225000
v -7.125000 -3.225000 3.225000
v 0.375000 3.750000 3.225000
v 0.375000 3.750000 3.225000
v -0.375000 -3.225000 3.375000
v -0.375000 -3.225000 3.375000
v -7.500000 -3.750000 -3.750000
v -7.500000 -3.750000 -3.750000
v -6.825000 3.375000 -3.225000
v -6.825000 3.375000 -3.225000
v -6.825000 3.375000 3.225000
v -6.825000 3.375000 3.225000
v -0.375000 3.375000 3.225000
v -0.375000 3.375000 3.225000
v 0.375000 -3.225000 3.750000
v 0.375000 -3.225000 3.750000
v 6.825000 -3.225000 -3.375000
v 6.825000 -3.225000 -3.375000
v -0.375000 3.225000 3.375000
v -0.375000 3.225000 3.375000
v 7.500000 -3.750000 3.750000
v 7.500000 -3.750000 3.750000
v 0.375000 3.750000 -3.225000
v 0.375000 3.750000 -3.225000
v -6.825000 -3.225000 3.375000
v -6.825000 -3.225000 3.375000
v 0.375000 -3.225000 -3.750000
v 0.375000 -3.225000 -3.750000
v -0.375000 3.225000 -3.750000
v -0.375000 3.225000 -3.750000
v 0.375000 -3.375000 -3.225000
v 0.375000 -3.375000 -3.225000
v 7.125000 -3.225000 3.225000
v 7.125000 -3.225000 3.225000
v 6.825000 -3.225000 3.750000
v 6.825000 -3.225000 3.750000
v -0.375000 -3.225000 -3.750000
v -0.375000 -3.225000 -3.750000
v 7.125000 3.225000 3.225000
v 7.125000 3.225000 3.225000
v -0.375000 -3.375000 -3.225000
v -0.375000 -3.375000 -3.225000
v -0.375000 3.375000 -3.225000
v -0.375000 3.375000 -3.225000
v 0.375000 -3.750000 -3.225000
v 0.375000 -3.750000 -3.225000
v -0.375000 -3.750000 3.225000
v -0.375000 -3.750000 3.225000
v 0.375000 3.225000 3.750000
v 0.375000 3.225000 3.750000
v -6.825000 3.225000 3.375000
v -6.825000 3.225000 3.375000
vt 0.240471 0.273008
vt 0.031407 0.273008
vt 0.014390 0.255991
vt 0.240471 0.482072
vt 0.257488 0.499089
vt 0.014390 0.499089
vt 0.257488 0.255991
vt 0.031407 0.482072
vt 0.279367 0.273008
vt 0.743687 0.255989
vt 0.721807 0.273007
vt 0.512736 0.273005
vt 0.488428 0.273007
vt 0.279367 0.482072
vt 0.743683 0.499094
vt 0.488433 0.482072
vt 0.512730 0.482073
vt 0.721803 0.482077
vt 0.721806 0.238973
vt 0.512738 0.238974
vt 0.488430 0.029909
vt 0.257486 0.012894
vt 0.743680 0.012890
vt 0.279366 0.029911
vt 0.279367 0.238974
vt 0.488429 0.238973
vt 0.512738 0.029909
vt 0.721802 0.029907
vt 0.721795 0.968279
vt 0.743675 0.985297
vt 0.512728 0.968273
vt 0.488428 0.759208
vt 0.257485 0.742185
vt 0.743677 0.742198
vt 0.257480 0.985281
vt 0.279364 0.759202
vt 0.279359 0.968264
vt 0.488419 0.968271
vt 0.512735 0.759208
vt 0.721799 0.759214
vt 0.279366 0.516106
vt 0.721803 0.516111
vt 0.512734 0.516107
vt 0.488427 0.516108
vt 0.279364 0.725169
vt 0.488428 0.725172
vt 0.512725 0.725173
vt 0.721797 0.725180
vt 0.053626 0.295796
vt 0.053626 0.461520
vt 0.043990 0.295796
vt 0.043990 0.461520
vt 0.219349 0.295796
vt 0.219349 0.286161
vt 0.053626 0.286161
vt 0.219349 0.461520
vt 0.228985 0.295796
vt 0.228985 0.461520
vt 0.219349 0.471156
vt 0.053626 0.471155
vt 0.760704 0.273007
vt 0.986793 0.255993
vt 0.760701 0.482078
vt 0.969775 0.273010
vt 0.986789 0.499098
vt 0.969772 0.482081
vt 0.302988 0.295781
vt 0.302988 0.461505
vt 0.293352 0.461505
vt 0.293353 0.295781
vt 0.468712 0.286146
vt 0.468712 0.295781
vt 0.302988 0.286145
vt 0.468712 0.461505
vt 0.478347 0.461505
vt 0.478347 0.295781
vt 0.468712 0.471140
vt 0.302988 0.471140
vt 0.536248 0.293936
vt 0.536248 0.459660
vt 0.526613 0.459660
vt 0.526613 0.293936
vt 0.701972 0.284301
vt 0.701972 0.293936
vt 0.536248 0.284301
vt 0.701972 0.459660
vt 0.711608 0.459660
vt 0.711608 0.293936
vt 0.701972 0.469295
vt 0.536248 0.469296
vt 0.291791 0.054425
vt 0.301426 0.054425
vt 0.301426 0.220149
vt 0.291791 0.220149
vt 0.467150 0.044790
vt 0.467150 0.054425
vt 0.301426 0.044790
vt 0.476785 0.054425
vt 0.467150 0.220149
vt 0.476786 0.220149
vt 0.467150 0.229784
vt 0.301426 0.229784
vt 0.525189 0.055499
vt 0.534824 0.055499
vt 0.534824 0.221223
vt 0.525189 0.221223
vt 0.700548 0.045864
vt 0.700548 0.055499
vt 0.534824 0.045863
vt 0.710183 0.055499
vt 0.700548 0.221223
vt 0.710184 0.221223
vt 0.700548 0.230858
vt 0.534824 0.230858
vt 0.467933 0.956188
vt 0.302209 0.956188
vt 0.302209 0.946552
vt 0.467933 0.946553
vt 0.292574 0.780828
vt 0.302210 0.780828
vt 0.292574 0.946552
vt 0.302210 0.771193
vt 0.467934 0.771194
vt 0.467934 0.780829
vt 0.477569 0.780829
vt 0.477568 0.946553
vt 0.531780 0.771322
vt 0.697504 0.771322
vt 0.697504 0.780957
vt 0.531780 0.780957
vt 0.707139 0.946681
vt 0.697504 0.946681
vt 0.707139 0.780957
vt 0.697504 0.956317
vt 0.531780 0.956316
vt 0.531780 0.946681
vt 0.522145 0.946681
vt 0.522145 0.780957
vt 0.299501 0.539550
vt 0.299501 0.529915
vt 0.465225 0.529915
vt 0.465225 0.539550
vt 0.474860 0.705274
vt 0.465225 0.705274
vt 0.474860 0.539550
vt 0.299501 0.714909
vt 0.299501 0.705274
vt 0.465225 0.714909
vt 0.289866 0.705274
vt 0.289866 0.539550
vt 0.535112 0.704225
vt 0.525477 0.704222
vt 0.525533 0.538498
vt 0.535169 0.538501
vt 0.700896 0.528923
vt 0.700893 0.538558
vt 0.535172 0.528866
vt 0.710471 0.704285
vt 0.700836 0.704282
vt 0.710528 0.538561
vt 0.700833 0.713917
vt 0.535109 0.713861
vt 0.781995 0.285700
vt 0.947719 0.285700
vt 0.947719 0.295335
vt 0.781995 0.295335
vt 0.772360 0.461059
vt 0.772360 0.295335
vt 0.781995 0.461059
vt 0.957354 0.295335
vt 0.957355 0.461059
vt 0.947719 0.461059
vt 0.947719 0.470694
vt 0.781995 0.470694
vn -1.000000 0.000000 0.000000
vn -0.999969 0.000000 0.000000
vn 0.000000 0.000000 1.000000
vn 0.000000 0.000000 0.999969
vn 0.000000 -1.000000 0.000000
vn 0.000000 0.000000 -1.000000
vn 0.000000 1.000000 0.000000
vn 0.000000 0.999969 0.000000
vn 1.000000 0.000000 0.000000
vn 0.999969 0.000000 0.000000
vn 0.000000 -0.999969 0.000000
vn 0.000000 0.000000 -0.999969
usemtl Material.001
s 1
f 1/1/1 2/2/1 219/3/1
f 97/4/1 5/5/1 119/6/2
f 192/7/1 5/5/1 97/4/1
f 199/8/1 97/4/1 119/6/2
f 192/7/1 97/4/1 1/1/1
f 192/7/1 1/1/1 219/3/1
f 219/3/1 2/2/1 119/6/2
f 2/2/1 199/8/1 119/6/2
f 9/9/3 7/7/4 233/10/3
f 247/11/3 12/12/3 233/10/3
f 13/13/3 9/9/3 233/10/3
f 117/5/3 7/7/4 9/9/3
f 117/5/3 9/9/3 14/14/3
f 198/15/3 117/5/3 16/16/3
f 12/12/3 13/13/3 233/10/3
f 198/15/3 16/16/3 261/17/3
f 198/15/3 139/18/3 233/10/3
f 198/15/3 261/17/3 139/18/3
f 139/18/3 247/11/3 233/10/3
f 12/12/3 261/17/3 16/16/3
f 14/14/3 16/16/3 117/5/3
f 16/16/3 13/13/3 12/12/3
f 19/19/5 10/10/5 20/20/5
f 21/21/5 3/22/5 128/23/5
f 191/7/5 3/22/5 109/24/5
f 191/7/5 109/24/5 24/25/5
f 191/7/5 24/25/5 10/10/5
f 24/25/5 25/26/5 10/10/5
f 21/21/5 20/20/5 25/26/5
f 26/27/5 21/21/5 128/23/5
f 27/28/5 26/27/5 128/23/5
f 25/26/5 20/20/5 10/10/5
f 27/28/5 10/10/5 19/19/5
f 10/10/5 27/28/5 128/23/5
f 109/24/5 3/22/5 21/21/5
f 20/20/5 21/21/5 26/27/5
f 181/29/6 127/30/6 239/31/6
f 30/32/6 120/33/6 31/34/6
f 220/35/6 120/33/6 32/36/6
f 220/35/6 32/36/6 207/37/6
f 220/35/6 207/37/6 127/30/6
f 207/37/6 34/38/6 127/30/6
f 30/32/6 239/31/6 34/38/6
f 123/39/6 30/32/6 31/34/6
f 36/40/6 123/39/6 31/34/6
f 34/38/6 239/31/6 127/30/6
f 36/40/6 127/30/6 181/29/6
f 127/30/6 36/40/6 31/34/6
f 32/36/6 120/33/6 30/32/6
f 239/31/6 30/32/6 123/39/6
f 163/41/7 118/5/8 15/15/7
f 101/42/7 39/43/7 15/15/7
f 40/44/7 163/41/7 15/15/7
f 6/33/7 118/5/8 163/41/7
f 6/33/7 163/41/7 41/45/7
f 129/34/7 6/33/7 42/46/7
f 39/43/7 40/44/7 15/15/7
f 129/34/7 42/46/7 43/47/7
f 129/34/7 44/48/7 15/15/7
f 129/34/7 43/47/7 44/48/7
f 44/48/7 101/42/7 15/15/7
f 39/43/7 43/47/7 42/46/7
f 41/45/7 42/46/7 6/33/7
f 42/46/7 40/44/7 39/43/7
f 45/49/6 46/50/6 4/51/6
f 4/51/6 46/50/6 177/52/6
f 47/53/5 99/49/5 200/54/5
f 200/54/5 99/49/5 98/55/5
f 48/56/3 149/53/3 8/57/3
f 180/58/3 48/56/3 8/57/3
f 213/50/7 189/56/7 179/59/7
f 178/60/7 213/50/7 179/59/7
f 209/61/9 234/10/9 22/62/10
f 50/63/9 197/15/9 209/61/9
f 51/64/9 209/61/9 22/62/10
f 197/15/9 234/10/9 209/61/9
f 130/65/9 197/15/9 50/63/9
f 130/65/9 52/66/9 22/62/10
f 130/65/9 50/63/9 52/66/9
f 52/66/9 51/64/9 22/62/10
f 53/67/9 264/68/9 195/69/9
f 193/70/9 53/67/9 195/69/9
f 105/71/7 217/72/7 237/67/7
f 194/73/7 105/71/7 237/67/7
f 56/74/1 55/72/1 108/75/1
f 108/75/1 55/72/1 106/76/1
f 231/74/5 107/77/5 54/68/5
f 54/68/5 107/77/5 196/78/5
f 57/79/9 58/80/9 17/81/9
f 227/82/9 57/79/9 17/81/9
f 11/83/7 151/84/7 167/79/7
f 228/85/7 11/83/7 167/79/7
f 60/86/1 59/84/1 18/87/1
f 18/87/1 59/84/1 248/88/1
f 141/86/5 140/89/5 169/80/5
f 169/80/5 140/89/5 262/90/5
f 23/91/9 61/92/9 143/93/9
f 121/94/9 23/91/9 143/93/9
f 176/95/3 63/96/3 111/92/3
f 110/97/3 176/95/3 111/92/3
f 253/96/1 175/98/1 64/99/1
f 64/99/1 175/98/1 260/100/1
f 145/99/6 259/101/6 62/93/6
f 62/93/6 259/101/6 122/102/6
f 257/103/9 243/104/9 66/105/9
f 171/106/9 257/103/9 66/105/9
f 137/107/3 113/108/3 65/104/3
f 258/109/3 137/107/3 65/104/3
f 67/108/1 138/110/1 68/111/1
f 68/111/1 138/110/1 136/112/1
f 116/111/6 135/113/6 173/105/6
f 173/105/6 135/113/6 172/114/6
f 33/115/9 205/116/9 69/117/9
f 131/118/9 33/115/9 69/117/9
f 241/119/5 71/120/5 206/121/5
f 206/121/5 71/120/5 159/117/5
f 242/122/1 249/123/1 161/120/1
f 161/120/1 249/123/1 133/124/1
f 72/124/7 250/125/7 208/126/7
f 70/118/7 72/124/7 208/126/7
f 240/127/9 124/128/9 93/129/9
f 74/130/9 240/127/9 93/129/9
f 125/131/5 75/132/5 35/133/5
f 35/133/5 75/132/5 73/129/5
f 126/134/1 28/135/1 95/132/1
f 95/132/1 28/135/1 229/136/1
f 76/136/7 182/137/7 29/138/7
f 187/130/7 76/136/7 29/138/7
f 77/139/9 166/140/9 37/141/9
f 78/142/9 77/139/9 37/141/9
f 90/143/6 79/144/6 164/145/6
f 164/145/6 79/144/6 223/142/6
f 91/146/1 80/147/1 89/148/1
f 89/148/1 80/147/1 226/144/1
f 255/147/3 92/149/3 165/150/3
f 222/139/3 255/147/3 165/150/3
f 155/151/9 236/152/9 215/153/9
f 153/154/9 155/151/9 215/153/9
f 38/155/6 83/156/6 216/157/6
f 216/157/6 83/156/6 82/154/6
f 147/158/1 157/159/1 102/160/1
f 102/160/1 157/159/1 104/156/1
f 84/159/3 148/161/3 235/162/3
f 81/151/3 84/159/3 235/162/3
f 150/53/1 190/56/2 100/49/2
f 100/49/2 190/56/2 214/50/1
f 49/163/7 202/164/7 183/165/7
f 86/166/7 49/163/7 183/165/7
f 212/167/6 210/168/6 87/169/6
f 87/169/6 210/168/6 245/166/6
f 201/170/3 203/171/3 88/172/3
f 85/165/3 201/170/3 88/172/3
f 204/173/5 211/174/5 185/172/5
f 185/172/5 211/174/5 251/169/5
f 218/72/4 232/74/3 263/68/4
f 238/67/3 218/72/4 263/68/4
f 152/84/4 142/86/3 170/80/4
f 168/79/3 152/84/4 170/80/4
f 254/96/5 146/99/11 112/92/11
f 112/92/11 146/99/11 144/93/5
f 114/108/5 115/111/11 244/104/11
f 244/104/11 115/111/11 174/105/5
f 162/120/6 134/124/12 160/117/12
f 160/117/12 134/124/12 132/118/6
f 96/132/6 230/136/12 94/129/12
f 94/129/12 230/136/12 188/130/6
f 225/144/8 256/147/7 221/139/8
f 224/142/7 225/144/8 221/139/8
f 103/156/8 158/159/7 156/151/8
f 154/154/7 103/156/8 156/151/8
f 184/165/10 186/172/9 252/169/10
f 246/166/9 184/165/10 252/169/10
