solid OpenSCAD_Model
  facet normal 0.577349 -0.187590 0.794656
    outer loop
      vertex 0.075000 -0.054491 0.285317
      vertex 0.242705 0.000000 0.176336
      vertex 0.092705 0.000000 0.285317
    endloop
  endfacet
  facet normal 0.000000 0.000000 1.000000
    outer loop
      vertex -0.092705 0.000000 0.285317
      vertex -0.075000 -0.054491 0.285317
      vertex -0.028647 -0.088168 0.285317
    endloop
  endfacet
  facet normal -0.000000 0.000000 1.000000
    outer loop
      vertex 0.075000 -0.054491 0.285317
      vertex -0.092705 0.000000 0.285317
      vertex 0.028647 -0.088168 0.285317
    endloop
  endfacet
  facet normal -0.000000 0.000000 1.000000
    outer loop
      vertex 0.028647 -0.088168 0.285317
      vertex -0.092705 0.000000 0.285317
      vertex -0.028647 -0.088168 0.285317
    endloop
  endfacet
  facet normal 0.000000 0.000000 1.000000
    outer loop
      vertex 0.092705 0.000000 0.285317
      vertex -0.092705 0.000000 0.285317
      vertex 0.075000 -0.054491 0.285317
    endloop
  endfacet
  facet normal 0.000000 -0.000000 1.000000
    outer loop
      vertex 0.075000 0.054491 0.285317
      vertex -0.092705 0.000000 0.285317
      vertex 0.092705 0.000000 0.285317
    endloop
  endfacet
  facet normal 0.000000 -0.000000 1.000000
    outer loop
      vertex 0.028647 0.088168 0.285317
      vertex -0.092705 0.000000 0.285317
      vertex 0.075000 0.054491 0.285317
    endloop
  endfacet
  facet normal 0.000000 -0.000000 1.000000
    outer loop
      vertex -0.028647 0.088168 0.285317
      vertex -0.092705 0.000000 0.285317
      vertex 0.028647 0.088168 0.285317
    endloop
  endfacet
  facet normal 0.000000 -0.000000 1.000000
    outer loop
      vertex -0.075000 0.054491 0.285317
      vertex -0.092705 0.000000 0.285317
      vertex -0.028647 0.088168 0.285317
    endloop
  endfacet
  facet normal 0.577350 0.187590 0.794656
    outer loop
      vertex 0.075000 0.054491 0.285317
      vertex 0.092705 0.000000 0.285317
      vertex 0.196353 0.142658 0.176336
    endloop
  endfacet
  facet normal 0.577349 0.187591 0.794656
    outer loop
      vertex 0.092705 0.000000 0.285317
      vertex 0.242705 0.000000 0.176336
      vertex 0.196353 0.142658 0.176336
    endloop
  endfacet
  facet normal 0.577349 -0.187591 0.794656
    outer loop
      vertex 0.075000 -0.054491 0.285317
      vertex 0.196353 -0.142658 0.176336
      vertex 0.242705 0.000000 0.176336
    endloop
  endfacet
  facet normal 0.356819 -0.491126 0.794654
    outer loop
      vertex 0.028647 -0.088168 0.285317
      vertex 0.196353 -0.142658 0.176336
      vertex 0.075000 -0.054491 0.285317
    endloop
  endfacet
  facet normal 0.908662 -0.295240 0.295242
    outer loop
      vertex 0.196353 -0.142658 0.176336
      vertex 0.300000 0.000000 0.000000
      vertex 0.242705 0.000000 0.176336
    endloop
  endfacet
  facet normal 0.908662 0.295240 0.295240
    outer loop
      vertex 0.196353 0.142658 0.176336
      vertex 0.242705 0.000000 0.176336
      vertex 0.242705 0.176336 0.000000
    endloop
  endfacet
  facet normal 0.908661 0.295242 0.295242
    outer loop
      vertex 0.242705 0.000000 0.176336
      vertex 0.300000 0.000000 0.000000
      vertex 0.242705 0.176336 0.000000
    endloop
  endfacet
  facet normal -0.577350 -0.187590 0.794656
    outer loop
      vertex -0.196353 -0.142658 0.176336
      vertex -0.075000 -0.054491 0.285317
      vertex -0.092705 0.000000 0.285317
    endloop
  endfacet
  facet normal -0.577349 -0.187591 0.794656
    outer loop
      vertex -0.242705 0.000000 0.176336
      vertex -0.196353 -0.142658 0.176336
      vertex -0.092705 0.000000 0.285317
    endloop
  endfacet
  facet normal -0.577349 0.187590 0.794656
    outer loop
      vertex -0.242705 0.000000 0.176336
      vertex -0.092705 0.000000 0.285317
      vertex -0.075000 0.054491 0.285317
    endloop
  endfacet
  facet normal -0.577349 0.187591 0.794656
    outer loop
      vertex -0.242705 0.000000 0.176336
      vertex -0.075000 0.054491 0.285317
      vertex -0.196353 0.142658 0.176336
    endloop
  endfacet
  facet normal -0.356819 0.491126 0.794654
    outer loop
      vertex -0.196353 0.142658 0.176336
      vertex -0.075000 0.054491 0.285317
      vertex -0.028647 0.088168 0.285317
    endloop
  endfacet
  facet normal -0.356821 0.491123 0.794655
    outer loop
      vertex -0.196353 0.142658 0.176336
      vertex -0.028647 0.088168 0.285317
      vertex -0.075000 0.230826 0.176336
    endloop
  endfacet
  facet normal 0.000000 0.607062 0.794655
    outer loop
      vertex -0.075000 0.230826 0.176336
      vertex -0.028647 0.088168 0.285317
      vertex 0.028647 0.088168 0.285317
    endloop
  endfacet
  facet normal -0.000000 0.607062 0.794655
    outer loop
      vertex 0.075000 0.230826 0.176336
      vertex -0.075000 0.230826 0.176336
      vertex 0.028647 0.088168 0.285317
    endloop
  endfacet
  facet normal 0.356818 0.491124 0.794656
    outer loop
      vertex 0.028647 0.088168 0.285317
      vertex 0.075000 0.054491 0.285317
      vertex 0.075000 0.230826 0.176336
    endloop
  endfacet
  facet normal 0.356822 0.491123 0.794655
    outer loop
      vertex 0.075000 0.054491 0.285317
      vertex 0.196353 0.142658 0.176336
      vertex 0.075000 0.230826 0.176336
    endloop
  endfacet
  facet normal 0.356821 -0.491123 0.794655
    outer loop
      vertex 0.028647 -0.088168 0.285317
      vertex 0.075000 -0.230826 0.176336
      vertex 0.196353 -0.142658 0.176336
    endloop
  endfacet
  facet normal 0.000000 -0.607062 0.794655
    outer loop
      vertex -0.075000 -0.230826 0.176336
      vertex 0.075000 -0.230826 0.176336
      vertex 0.028647 -0.088168 0.285317
    endloop
  endfacet
  facet normal 0.000000 -0.607062 0.794655
    outer loop
      vertex -0.028647 -0.088168 0.285317
      vertex -0.075000 -0.230826 0.176336
      vertex 0.028647 -0.088168 0.285317
    endloop
  endfacet
  facet normal -0.356818 -0.491124 0.794656
    outer loop
      vertex -0.075000 -0.230826 0.176336
      vertex -0.028647 -0.088168 0.285317
      vertex -0.075000 -0.054491 0.285317
    endloop
  endfacet
  facet normal -0.356822 -0.491123 0.794655
    outer loop
      vertex -0.196353 -0.142658 0.176336
      vertex -0.075000 -0.230826 0.176336
      vertex -0.075000 -0.054491 0.285317
    endloop
  endfacet
  facet normal 0.561583 0.772953 0.295242
    outer loop
      vertex 0.075000 0.230826 0.176336
      vertex 0.196353 0.142658 0.176336
      vertex 0.092705 0.285317 0.000000
    endloop
  endfacet
  facet normal 0.561582 0.772954 0.295243
    outer loop
      vertex 0.092705 0.285317 0.000000
      vertex 0.196353 0.142658 0.176336
      vertex 0.242705 0.176336 0.000000
    endloop
  endfacet
  facet normal 0.908661 -0.295242 0.295240
    outer loop
      vertex 0.196353 -0.142658 0.176336
      vertex 0.242705 -0.176336 0.000000
      vertex 0.300000 0.000000 0.000000
    endloop
  endfacet
  facet normal 0.561583 -0.772953 0.295243
    outer loop
      vertex 0.075000 -0.230826 0.176336
      vertex 0.242705 -0.176336 0.000000
      vertex 0.196353 -0.142658 0.176336
    endloop
  endfacet
  facet normal 0.908661 -0.295242 -0.295242
    outer loop
      vertex 0.242705 -0.176336 0.000000
      vertex 0.242705 0.000000 -0.176336
      vertex 0.300000 0.000000 0.000000
    endloop
  endfacet
  facet normal 0.908661 0.295242 -0.295240
    outer loop
      vertex 0.196353 0.142658 -0.176336
      vertex 0.242705 0.176336 0.000000
      vertex 0.300000 0.000000 0.000000
    endloop
  endfacet
  facet normal 0.908662 0.295240 -0.295242
    outer loop
      vertex 0.196353 0.142658 -0.176336
      vertex 0.300000 0.000000 0.000000
      vertex 0.242705 0.000000 -0.176336
    endloop
  endfacet
  facet normal 0.561582 0.772954 -0.295242
    outer loop
      vertex 0.075000 0.230826 -0.176336
      vertex 0.092705 0.285317 0.000000
      vertex 0.242705 0.176336 0.000000
    endloop
  endfacet
  facet normal 0.561583 0.772953 -0.295243
    outer loop
      vertex 0.075000 0.230826 -0.176336
      vertex 0.242705 0.176336 0.000000
      vertex 0.196353 0.142658 -0.176336
    endloop
  endfacet
  facet normal -0.561583 -0.772953 0.295242
    outer loop
      vertex -0.196353 -0.142658 0.176336
      vertex -0.092705 -0.285317 0.000000
      vertex -0.075000 -0.230826 0.176336
    endloop
  endfacet
  facet normal -0.561582 -0.772954 0.295243
    outer loop
      vertex -0.242705 -0.176336 0.000000
      vertex -0.092705 -0.285317 0.000000
      vertex -0.196353 -0.142658 0.176336
    endloop
  endfacet
  facet normal -0.908662 -0.295240 0.295240
    outer loop
      vertex -0.242705 -0.176336 0.000000
      vertex -0.196353 -0.142658 0.176336
      vertex -0.242705 0.000000 0.176336
    endloop
  endfacet
  facet normal -0.908661 -0.295242 0.295242
    outer loop
      vertex -0.300000 0.000000 0.000000
      vertex -0.242705 -0.176336 0.000000
      vertex -0.242705 0.000000 0.176336
    endloop
  endfacet
  facet normal -0.908662 0.295240 0.295242
    outer loop
      vertex -0.300000 0.000000 0.000000
      vertex -0.242705 0.000000 0.176336
      vertex -0.196353 0.142658 0.176336
    endloop
  endfacet
  facet normal -0.908661 0.295242 0.295240
    outer loop
      vertex -0.300000 0.000000 0.000000
      vertex -0.196353 0.142658 0.176336
      vertex -0.242705 0.176336 0.000000
    endloop
  endfacet
  facet normal -0.561583 0.772953 0.295243
    outer loop
      vertex -0.242705 0.176336 0.000000
      vertex -0.196353 0.142658 0.176336
      vertex -0.075000 0.230826 0.176336
    endloop
  endfacet
  facet normal -0.561582 0.772954 0.295242
    outer loop
      vertex -0.242705 0.176336 0.000000
      vertex -0.075000 0.230826 0.176336
      vertex -0.092705 0.285317 0.000000
    endloop
  endfacet
  facet normal 0.000000 0.955422 0.295243
    outer loop
      vertex -0.075000 0.230826 0.176336
      vertex 0.075000 0.230826 0.176336
      vertex -0.092705 0.285317 0.000000
    endloop
  endfacet
  facet normal 0.000000 0.955422 0.295243
    outer loop
      vertex -0.092705 0.285317 0.000000
      vertex 0.075000 0.230826 0.176336
      vertex 0.092705 0.285317 0.000000
    endloop
  endfacet
  facet normal 0.561582 -0.772954 0.295242
    outer loop
      vertex 0.075000 -0.230826 0.176336
      vertex 0.092705 -0.285317 0.000000
      vertex 0.242705 -0.176336 0.000000
    endloop
  endfacet
  facet normal 0.000000 -0.955422 0.295243
    outer loop
      vertex -0.092705 -0.285317 0.000000
      vertex 0.092705 -0.285317 0.000000
      vertex 0.075000 -0.230826 0.176336
    endloop
  endfacet
  facet normal 0.000000 -0.955422 0.295243
    outer loop
      vertex -0.075000 -0.230826 0.176336
      vertex -0.092705 -0.285317 0.000000
      vertex 0.075000 -0.230826 0.176336
    endloop
  endfacet
  facet normal 0.000000 0.955422 -0.295243
    outer loop
      vertex 0.092705 0.285317 0.000000
      vertex 0.075000 0.230826 -0.176336
      vertex -0.092705 0.285317 0.000000
    endloop
  endfacet
  facet normal 0.000000 0.955422 -0.295243
    outer loop
      vertex -0.092705 0.285317 0.000000
      vertex 0.075000 0.230826 -0.176336
      vertex -0.075000 0.230826 -0.176336
    endloop
  endfacet
  facet normal 0.908662 -0.295240 -0.295240
    outer loop
      vertex 0.196353 -0.142658 -0.176336
      vertex 0.242705 0.000000 -0.176336
      vertex 0.242705 -0.176336 0.000000
    endloop
  endfacet
  facet normal 0.561582 -0.772954 -0.295243
    outer loop
      vertex 0.092705 -0.285317 0.000000
      vertex 0.196353 -0.142658 -0.176336
      vertex 0.242705 -0.176336 0.000000
    endloop
  endfacet
  facet normal 0.577349 -0.187591 -0.794656
    outer loop
      vertex 0.092705 0.000000 -0.285317
      vertex 0.242705 0.000000 -0.176336
      vertex 0.196353 -0.142658 -0.176336
    endloop
  endfacet
  facet normal 0.577349 0.187591 -0.794656
    outer loop
      vertex 0.075000 0.054491 -0.285317
      vertex 0.196353 0.142658 -0.176336
      vertex 0.242705 0.000000 -0.176336
    endloop
  endfacet
  facet normal 0.577349 0.187590 -0.794656
    outer loop
      vertex 0.075000 0.054491 -0.285317
      vertex 0.242705 0.000000 -0.176336
      vertex 0.092705 0.000000 -0.285317
    endloop
  endfacet
  facet normal 0.356821 0.491123 -0.794655
    outer loop
      vertex 0.028647 0.088168 -0.285317
      vertex 0.075000 0.230826 -0.176336
      vertex 0.196353 0.142658 -0.176336
    endloop
  endfacet
  facet normal 0.356819 0.491126 -0.794654
    outer loop
      vertex 0.028647 0.088168 -0.285317
      vertex 0.196353 0.142658 -0.176336
      vertex 0.075000 0.054491 -0.285317
    endloop
  endfacet
  facet normal 0.000000 0.607062 -0.794655
    outer loop
      vertex 0.075000 0.230826 -0.176336
      vertex 0.028647 0.088168 -0.285317
      vertex -0.075000 0.230826 -0.176336
    endloop
  endfacet
  facet normal 0.000000 0.607062 -0.794655
    outer loop
      vertex -0.075000 0.230826 -0.176336
      vertex 0.028647 0.088168 -0.285317
      vertex -0.028647 0.088168 -0.285317
    endloop
  endfacet
  facet normal 0.000000 -0.955422 -0.295243
    outer loop
      vertex -0.092705 -0.285317 0.000000
      vertex -0.075000 -0.230826 -0.176336
      vertex 0.075000 -0.230826 -0.176336
    endloop
  endfacet
  facet normal 0.000000 -0.955422 -0.295243
    outer loop
      vertex 0.092705 -0.285317 0.000000
      vertex -0.092705 -0.285317 0.000000
      vertex 0.075000 -0.230826 -0.176336
    endloop
  endfacet
  facet normal -0.561582 -0.772954 -0.295242
    outer loop
      vertex -0.242705 -0.176336 0.000000
      vertex -0.075000 -0.230826 -0.176336
      vertex -0.092705 -0.285317 0.000000
    endloop
  endfacet
  facet normal -0.561583 -0.772953 -0.295243
    outer loop
      vertex -0.242705 -0.176336 0.000000
      vertex -0.196353 -0.142658 -0.176336
      vertex -0.075000 -0.230826 -0.176336
    endloop
  endfacet
  facet normal -0.908661 -0.295242 -0.295240
    outer loop
      vertex -0.300000 0.000000 0.000000
      vertex -0.196353 -0.142658 -0.176336
      vertex -0.242705 -0.176336 0.000000
    endloop
  endfacet
  facet normal -0.908662 -0.295240 -0.295242
    outer loop
      vertex -0.300000 0.000000 0.000000
      vertex -0.242705 0.000000 -0.176336
      vertex -0.196353 -0.142658 -0.176336
    endloop
  endfacet
  facet normal -0.908661 0.295242 -0.295242
    outer loop
      vertex -0.300000 0.000000 0.000000
      vertex -0.242705 0.176336 0.000000
      vertex -0.242705 0.000000 -0.176336
    endloop
  endfacet
  facet normal -0.908662 0.295240 -0.295240
    outer loop
      vertex -0.242705 0.000000 -0.176336
      vertex -0.242705 0.176336 0.000000
      vertex -0.196353 0.142658 -0.176336
    endloop
  endfacet
  facet normal -0.561582 0.772954 -0.295243
    outer loop
      vertex -0.242705 0.176336 0.000000
      vertex -0.092705 0.285317 0.000000
      vertex -0.196353 0.142658 -0.176336
    endloop
  endfacet
  facet normal -0.561583 0.772953 -0.295242
    outer loop
      vertex -0.196353 0.142658 -0.176336
      vertex -0.092705 0.285317 0.000000
      vertex -0.075000 0.230826 -0.176336
    endloop
  endfacet
  facet normal 0.561583 -0.772953 -0.295242
    outer loop
      vertex 0.075000 -0.230826 -0.176336
      vertex 0.196353 -0.142658 -0.176336
      vertex 0.092705 -0.285317 0.000000
    endloop
  endfacet
  facet normal -0.356822 0.491123 -0.794655
    outer loop
      vertex -0.196353 0.142658 -0.176336
      vertex -0.075000 0.230826 -0.176336
      vertex -0.075000 0.054491 -0.285317
    endloop
  endfacet
  facet normal -0.356818 0.491124 -0.794656
    outer loop
      vertex -0.075000 0.054491 -0.285317
      vertex -0.075000 0.230826 -0.176336
      vertex -0.028647 0.088168 -0.285317
    endloop
  endfacet
  facet normal 0.577350 -0.187590 -0.794656
    outer loop
      vertex 0.075000 -0.054491 -0.285317
      vertex 0.092705 0.000000 -0.285317
      vertex 0.196353 -0.142658 -0.176336
    endloop
  endfacet
  facet normal 0.356822 -0.491123 -0.794655
    outer loop
      vertex 0.075000 -0.230826 -0.176336
      vertex 0.075000 -0.054491 -0.285317
      vertex 0.196353 -0.142658 -0.176336
    endloop
  endfacet
  facet normal -0.000000 0.000000 -1.000000
    outer loop
      vertex -0.075000 0.054491 -0.285317
      vertex -0.028647 0.088168 -0.285317
      vertex -0.092705 0.000000 -0.285317
    endloop
  endfacet
  facet normal 0.000000 0.000000 -1.000000
    outer loop
      vertex -0.092705 0.000000 -0.285317
      vertex -0.028647 0.088168 -0.285317
      vertex 0.028647 0.088168 -0.285317
    endloop
  endfacet
  facet normal 0.000000 0.000000 -1.000000
    outer loop
      vertex -0.092705 0.000000 -0.285317
      vertex 0.028647 0.088168 -0.285317
      vertex 0.075000 0.054491 -0.285317
    endloop
  endfacet
  facet normal -0.000000 0.000000 -1.000000
    outer loop
      vertex -0.092705 0.000000 -0.285317
      vertex 0.075000 0.054491 -0.285317
      vertex 0.092705 0.000000 -0.285317
    endloop
  endfacet
  facet normal 0.000000 0.000000 -1.000000
    outer loop
      vertex -0.092705 0.000000 -0.285317
      vertex 0.092705 0.000000 -0.285317
      vertex 0.075000 -0.054491 -0.285317
    endloop
  endfacet
  facet normal 0.000000 0.000000 -1.000000
    outer loop
      vertex -0.092705 0.000000 -0.285317
      vertex 0.075000 -0.054491 -0.285317
      vertex 0.028647 -0.088168 -0.285317
    endloop
  endfacet
  facet normal 0.000000 0.000000 -1.000000
    outer loop
      vertex -0.092705 0.000000 -0.285317
      vertex 0.028647 -0.088168 -0.285317
      vertex -0.028647 -0.088168 -0.285317
    endloop
  endfacet
  facet normal 0.000000 0.000000 -1.000000
    outer loop
      vertex -0.092705 0.000000 -0.285317
      vertex -0.028647 -0.088168 -0.285317
      vertex -0.075000 -0.054491 -0.285317
    endloop
  endfacet
  facet normal 0.356818 -0.491124 -0.794656
    outer loop
      vertex 0.028647 -0.088168 -0.285317
      vertex 0.075000 -0.054491 -0.285317
      vertex 0.075000 -0.230826 -0.176336
    endloop
  endfacet
  facet normal -0.000000 -0.607062 -0.794655
    outer loop
      vertex -0.028647 -0.088168 -0.285317
      vertex 0.028647 -0.088168 -0.285317
      vertex -0.075000 -0.230826 -0.176336
    endloop
  endfacet
  facet normal -0.000000 -0.607062 -0.794655
    outer loop
      vertex -0.075000 -0.230826 -0.176336
      vertex 0.028647 -0.088168 -0.285317
      vertex 0.075000 -0.230826 -0.176336
    endloop
  endfacet
  facet normal -0.356821 -0.491123 -0.794655
    outer loop
      vertex -0.196353 -0.142658 -0.176336
      vertex -0.028647 -0.088168 -0.285317
      vertex -0.075000 -0.230826 -0.176336
    endloop
  endfacet
  facet normal -0.356819 -0.491126 -0.794654
    outer loop
      vertex -0.196353 -0.142658 -0.176336
      vertex -0.075000 -0.054491 -0.285317
      vertex -0.028647 -0.088168 -0.285317
    endloop
  endfacet
  facet normal -0.577349 -0.187591 -0.794656
    outer loop
      vertex -0.242705 0.000000 -0.176336
      vertex -0.075000 -0.054491 -0.285317
      vertex -0.196353 -0.142658 -0.176336
    endloop
  endfacet
  facet normal -0.577349 -0.187590 -0.794656
    outer loop
      vertex -0.242705 0.000000 -0.176336
      vertex -0.092705 0.000000 -0.285317
      vertex -0.075000 -0.054491 -0.285317
    endloop
  endfacet
  facet normal -0.577349 0.187591 -0.794656
    outer loop
      vertex -0.242705 0.000000 -0.176336
      vertex -0.196353 0.142658 -0.176336
      vertex -0.092705 0.000000 -0.285317
    endloop
  endfacet
  facet normal -0.577350 0.187590 -0.794656
    outer loop
      vertex -0.196353 0.142658 -0.176336
      vertex -0.075000 0.054491 -0.285317
      vertex -0.092705 0.000000 -0.285317
    endloop
  endfacet
endsolid OpenSCAD_Model
