solid OpenSCAD_Model
  facet normal 0.471404 0.816497 0.333333
    outer loop
      vertex -0.5 0.866025 -0.707107
      vertex 0 0 0.707107
      vertex 1 0 -0.707107
    endloop
  endfacet
  facet normal -0.942809 0 0.333333
    outer loop
      vertex -0.5 -0.866025 -0.707107
      vertex 0 0 0.707107
      vertex -0.5 0.866025 -0.707107
    endloop
  endfacet
  facet normal 0.471404 -0.816497 0.333333
    outer loop
      vertex 1 0 -0.707107
      vertex 0 0 0.707107
      vertex -0.5 -0.866025 -0.707107
    endloop
  endfacet
  facet normal 0 0 -1
    outer loop
      vertex -0.5 -0.866025 -0.707107
      vertex -0.5 0.866025 -0.707107
      vertex 1 0 -0.707107
    endloop
  endfacet
endsolid OpenSCAD_Model
